<svg id="remove" xmlns="http://www.w3.org/2000/svg" width="26" height="26" viewBox="0 0 26 26">
  <path id="Path_8" data-name="Path 8" d="M13,0A13,13,0,1,0,26,13,13.014,13.014,0,0,0,13,0Zm0,0" fill="#a31c60" />
  <path id="Path_9" data-name="Path 9"
    d="M165.364,163.831a1.083,1.083,0,1,1-1.532,1.532l-3.255-3.256-3.255,3.256a1.083,1.083,0,0,1-1.532-1.532l3.256-3.255-3.256-3.255a1.083,1.083,0,0,1,1.532-1.532l3.255,3.256,3.255-3.256a1.083,1.083,0,0,1,1.532,1.532l-3.256,3.255Zm0,0"
    transform="translate(-147.576 -147.576)" fill="#fafafa" />
</svg>