
<svg xmlns="http://www.w3.org/2000/svg" width="229.817" height="80.254" viewBox="0 0 229.817 80.254">
  <g id="Untitled-3" transform="translate(-0.002 -0.002)">
    <path id="Path_31" data-name="Path 31" d="M122.274,53.189c.293,5.659.37,10.069-1.16,14.99-1.976,6.36-5.991,10.439-12.772,11.739-6.59,1.275-11.612-1.134-15.7-6.016-3.849-4.614-6.156-10.082-7.954-15.7-.943-2.957-2.371-3.888-5.417-3.849q-17.819.249-35.638-.013c-3.365-.051-4.831,1.083-5.812,4.244a43.916,43.916,0,0,1-7.265,14.645c-4.257,5.353-9.47,8.145-16.634,6.577C6.844,78.261,2.906,73.851,1.325,67.146c-2.881-12.211-.293-24.371.6-36.531a74.606,74.606,0,0,1,2.154-13.09C8.183,1.44,25.008-4.806,38.442,4.8a11.568,11.568,0,0,0,7.495,2.447c7.852-.166,15.691-.064,23.542-.051,6.271,0,11.918-.37,17.883-4.1,12.249-7.7,27.2-.319,31.177,14.225a36.056,36.056,0,0,1,1.173,5.57C120.808,32.936,121.764,43.043,122.274,53.189ZM61.092,48.027c7.418,0,14.849.166,22.268-.076,3.505-.115,5.3.752,6.22,4.436a48.673,48.673,0,0,0,6.029,14.531c2.689,4.244,5.71,7.826,11.726,6.641s7.864-5.659,8.26-10.592a140.5,140.5,0,0,0-3.786-45.211C109.26,7.609,97.47,2.88,89.644,9.139c-5.506,4.4-10.923,4.461-16.965,4.448-9.968-.013-19.935-.064-29.9.038a9.263,9.263,0,0,1-6.781-2.473c-9.789-8.514-22.4-4.538-25.62,8A71.233,71.233,0,0,0,8.336,31.623c-.778,10.911-3.046,21.783-1.02,32.77.867,4.716,2.932,8.234,8.17,9.215,5.3.994,8.387-1.9,10.974-5.761a49.308,49.308,0,0,0,6.462-15.041c.994-3.709,2.549-5.086,6.513-4.895C46.651,48.269,53.878,48.027,61.092,48.027Z" transform="translate(0 0)" fill="#fff"/>
    <path id="Path_32" data-name="Path 32" d="M22.862,23.968,14.7,32.125a12.329,12.329,0,0,1,0-16.315Z" transform="translate(3.191 4.341)" fill="#fff"/>
    <path id="Path_33" data-name="Path 33" d="M31.238,31.238a12.308,12.308,0,0,1-16.328,0l8.158-8.158Z" transform="translate(4.094 6.338)" fill="#fff"/>
    <path id="Path_34" data-name="Path 34" d="M31.238,15.595l-8.17,8.158L14.91,15.595a12.346,12.346,0,0,1,16.328,0Z" transform="translate(4.094 3.435)" fill="#fff"/>
    <path id="Path_35" data-name="Path 35" d="M33.432,23.968a12.254,12.254,0,0,1-3.085,8.158L22.19,23.968l8.158-8.158A12.254,12.254,0,0,1,33.432,23.968Z" transform="translate(6.093 4.341)" fill="#fff"/>
    <path id="Path_36" data-name="Path 36" d="M112.715,8.67c6.042.229,11.765,1.491,14.467,7.89,2.536,5.991.408,12.364-5.481,17.118-.956.778-2.46,1.007-1.262,2.689,1.364,1.912,3.238,4.5.255,5.761-2.46,1.045-6.437,1.632-8.362-.867-3.276-4.232-7.877-6.679-11.586-10.184-4.219-3.99-4.385-9.56-2.282-14.722C100.963,10.238,106.571,8.925,112.715,8.67Zm-4.283,12.275c-.229,3.2.357,6.131,4.168,6.386,3,.2,4.385-1.937,4.563-4.793.178-2.944-.472-5.583-3.926-5.991C110.178,16.19,108.687,18.026,108.432,20.945Z" transform="translate(26.677 2.38)" fill="#fff"/>
    <path id="Path_37" data-name="Path 37" d="M130.093,9.427c8.438,0,8.527.153,5.277,8.234-.828,2.052-.421,4.13,0,6.182a3.709,3.709,0,0,0,4.079,3.187c2.052-.064,3.8-1.007,3.99-3.276.166-2.065.663-4.6-.293-6.156-1.593-2.6-2.689-5.927-.765-7.38,2.779-2.1,7.049-1.275,10.388-.5,2.791.65,2.116,4.4,1.007,5.851-1.772,2.333-1.453,4.678-1.682,7.1-.8,8.731-5.086,12.746-13.422,12.568-8.4-.178-12.721-4.3-13.4-12.733-.127-1.657-.013-3.441-.6-4.92C121.49,9.631,121.579,9.427,130.093,9.427Z" transform="translate(33.708 2.439)" fill="#fff"/>
    <path id="Path_38" data-name="Path 38" d="M169.861,16.526c-1.7.484-3.722,2.4-4.984.089-.8-1.479-.561-3.709-.306-5.545.331-2.435,2.536-1.7,4.079-1.746,3.378-.089,6.768-.038,10.146-.025,6.156.025,7.813,3.059,4.5,8.54-1.937,3.2-4.206,6.207-6.284,9.241,2.243,2.294,8.145-5.175,7.66,3.441-.2,3.582-1.109,4.78-4.678,4.5s-7.176-.051-10.771-.064c-5.889-.038-7.508-3.008-4.27-8.221,1.886-3.034,4.117-5.838,6.207-8.744.242-.459.816-1.122.676-1.351C171.327,15.876,170.549,16.195,169.861,16.526Z" transform="translate(44.848 2.542)" fill="#fff"/>
    <path id="Path_39" data-name="Path 39" d="M157.691,34.971c-8.935,0-8.68.076-6.195-8.808a13.225,13.225,0,0,0-.727-9.725c-2.638-5.29-1.313-7.074,4.461-7.138h1.262c9.3-.013,9.126-.064,6.654,8.833a14.605,14.605,0,0,0,.051,8.107C166.129,35.035,166.32,34.971,157.691,34.971Z" transform="translate(41.047 2.553)" fill="#fff"/>
    <path id="Path_40" data-name="Path 40" d="M168.45,15.039c.688-.344,1.479-.663,1.963.127.14.217-.433.879-.676,1.351C169.3,16.033,168.871,15.536,168.45,15.039Z" transform="translate(46.259 4.029)" fill="#fdfdfd"/>
    <circle id="Ellipse_17" data-name="Ellipse 17" cx="4.41" cy="4.41" r="4.41" transform="translate(88.751 16.06)" fill="#fff"/>
    <circle id="Ellipse_18" data-name="Ellipse 18" cx="4.41" cy="4.41" r="4.41" transform="translate(88.751 32.502)" fill="#2196f3"/>
    <circle id="Ellipse_19" data-name="Ellipse 19" cx="4.41" cy="4.41" r="4.41" transform="translate(80.479 24.281)" fill="#5fa52e"/>
    <circle id="Ellipse_20" data-name="Ellipse 20" cx="4.41" cy="4.41" r="4.41" transform="translate(97.024 24.281)" fill="#a31c60"/>
  </g>
</svg>
